<svg width="715" height="715" viewBox="0 0 715 715" fill="none" xmlns="http://www.w3.org/2000/svg">
<path d="M357.5 7.15009C550.993 7.15009 707.85 164.007 707.85 357.5C707.85 550.993 550.993 707.85 357.5 707.85C164.007 707.85 7.15039 550.993 7.15039 357.5C7.15039 164.007 164.007 7.15009 357.5 7.15009Z" fill="white" stroke="#FFA800" stroke-width="10"/>
<path d="M357.5 572C475.965 572 572 475.965 572 357.5C572 239.035 475.965 143 357.5 143C239.035 143 143 239.035 143 357.5C143 475.965 239.035 572 357.5 572Z" fill="#FFA800"/>
<path d="M679.25 357.5C679.25 411.237 665.791 464.118 640.102 511.314C614.414 558.512 577.311 598.526 532.186 627.701L480.586 547.887C512.383 527.33 538.524 499.136 556.625 465.88C574.726 432.624 584.209 395.364 584.209 357.5H679.25Z" fill="#FFA800"/>
<path d="M368.005 679.078C314.297 680.835 261.007 669.109 212.995 644.973C164.984 620.84 123.781 585.065 93.1484 540.915L171.234 486.738C192.819 517.846 221.85 543.054 255.68 560.06C289.51 577.062 327.059 585.325 364.902 584.089L368.005 679.078Z" fill="#FFA800"/>
<path d="M36.5851 380.666C32.7161 327.069 42.3323 273.357 64.5565 224.432C86.7804 175.506 120.905 132.926 163.814 100.578L221.026 176.47C190.791 199.262 166.747 229.265 151.088 263.738C135.429 298.212 128.653 336.058 131.379 373.822L36.5851 380.666Z" fill="#FFA800"/>
<path d="M340.008 36.2259C393.664 33.3044 447.198 43.8684 495.723 66.9532C544.249 90.0383 586.217 124.909 617.802 168.383L540.911 224.245C518.658 193.613 489.085 169.043 454.894 152.777C420.703 136.511 382.982 129.067 345.173 131.126L340.008 36.2259Z" fill="#FFA800"/>
<path d="M424.931 125.252C420.755 123.38 417.821 120.56 416.125 116.791C414.429 113.023 413.823 108.709 414.309 103.849C414.818 98.9372 416.254 93.8453 418.616 88.5732C421.001 83.249 423.847 78.7885 427.15 75.1921C430.479 71.5436 434.103 69.124 438.021 67.934C441.962 66.6916 446.02 67.0062 450.196 68.8775C454.475 70.7957 457.438 73.6274 459.082 77.3725C460.801 81.0891 461.407 85.4034 460.898 90.3152C460.412 95.1749 458.976 100.267 456.591 105.591C454.229 110.863 451.383 115.323 448.054 118.972C444.751 122.569 441.127 124.988 437.186 126.23C433.296 127.496 429.212 127.17 424.931 125.252ZM427.107 120.397C430.187 121.777 433.179 121.958 436.079 120.939C439.033 119.943 441.816 117.93 444.427 114.901C447.113 111.843 449.498 107.991 451.58 103.345C453.685 98.6475 454.972 94.3043 455.444 90.3157C455.99 86.2983 455.653 82.8563 454.429 79.9891C453.259 77.1457 451.134 75.0336 448.054 73.6537C445.028 72.2969 442.036 72.1164 439.085 73.112C436.182 74.131 433.388 76.1696 430.702 79.2278C428.091 82.2574 425.732 86.121 423.627 90.8188C421.545 95.4643 420.232 99.7958 419.686 103.813C419.214 107.802 419.563 111.218 420.732 114.061C421.956 116.928 424.081 119.04 427.107 120.397ZM464.802 142.178C464.124 141.874 463.655 141.382 463.395 140.702C463.135 140.021 463.146 139.368 463.426 138.742L484.55 91.6068L485.059 92.7759L471.569 94.3458C471.163 94.4144 470.751 94.3549 470.333 94.1679C469.604 93.8404 469.121 93.3105 468.883 92.5777C468.672 91.7932 468.695 91.1137 468.952 90.5394C469.301 89.7566 470.013 89.2913 471.08 89.1434L487.891 87.0871C488.554 87.0079 489.227 87.184 489.913 87.6159C490.462 87.9254 490.817 88.397 490.971 89.0305C491.2 89.6354 491.174 90.2508 490.894 90.8772L468.437 140.988C468.157 141.614 467.651 142.045 466.918 142.281C466.238 142.54 465.531 142.506 464.802 142.178ZM497.572 157.804C493.396 155.933 490.459 153.112 488.763 149.344C487.067 145.575 486.464 141.261 486.947 136.401C487.456 131.489 488.892 126.398 491.254 121.126C493.642 115.801 496.485 111.341 499.791 107.745C503.118 104.096 506.741 101.677 510.659 100.486C514.6 99.2441 518.659 99.5587 522.834 101.43C527.116 103.348 530.076 106.18 531.72 109.925C533.439 113.642 534.046 117.956 533.536 122.868C533.05 127.727 531.615 132.819 529.229 138.144C526.867 143.415 524.021 147.876 520.695 151.524C517.389 155.121 513.768 157.54 509.827 158.783C505.937 160.048 501.851 159.722 497.572 157.804ZM499.746 152.949C502.826 154.33 505.817 154.51 508.717 153.491C511.672 152.496 514.455 150.483 517.066 147.454C519.751 144.395 522.137 140.543 524.219 135.898C526.324 131.2 527.611 126.857 528.082 122.868C528.629 118.851 528.291 115.409 527.07 112.542C525.9 109.698 523.775 107.586 520.695 106.206C517.666 104.849 514.678 104.669 511.723 105.665C508.82 106.684 506.029 108.722 503.341 111.78C500.729 114.81 498.373 118.674 496.265 123.371C494.183 128.017 492.87 132.348 492.324 136.366C491.852 140.354 492.201 143.77 493.371 146.614C494.595 149.481 496.72 151.593 499.746 152.949Z" fill="white"/>
<path d="M603.32 424.924C605.774 421.061 608.988 418.564 612.961 417.428C616.936 416.293 621.292 416.319 626.031 417.5C630.819 418.712 635.649 420.866 640.526 423.966C645.451 427.095 649.452 430.553 652.535 434.342C655.664 438.16 657.537 442.096 658.149 446.146C658.81 450.224 657.912 454.194 655.458 458.058C652.944 462.016 649.712 464.538 645.771 465.625C641.844 466.789 637.488 466.766 632.701 465.554C627.962 464.372 623.131 462.216 618.206 459.087C613.33 455.99 609.326 452.529 606.197 448.711C603.114 444.922 601.244 440.989 600.583 436.908C599.891 432.878 600.803 428.883 603.32 424.924ZM607.81 427.776C606 430.624 605.388 433.559 605.98 436.576C606.537 439.642 608.128 442.685 610.747 445.708C613.387 448.805 616.853 451.723 621.152 454.451C625.496 457.214 629.609 459.116 633.487 460.157C637.383 461.278 640.837 461.441 643.852 460.643C646.835 459.896 649.231 458.098 651.042 455.249C652.821 452.449 653.43 449.518 652.872 446.452C652.28 443.431 650.667 440.374 648.027 437.274C645.408 434.254 641.924 431.362 637.58 428.599C633.284 425.871 629.186 423.943 625.29 422.822C621.412 421.781 617.98 421.635 614.997 422.382C611.986 423.18 609.589 424.976 607.81 427.776ZM571.854 485.313C571.488 485.894 570.962 486.237 570.284 486.349C569.621 486.537 569 486.446 568.422 486.08C567.793 485.679 567.424 485.142 567.315 484.461C567.172 483.829 567.287 483.223 567.656 482.645L584.913 455.489C585.311 454.86 585.834 454.414 586.477 454.145C587.141 453.956 587.833 454.091 588.557 454.551C589.089 454.889 589.472 455.403 589.709 456.098L597.546 484.561C598.69 488.946 599.991 492.552 601.447 495.375C602.905 498.2 604.77 500.334 607.038 501.775C609.212 503.157 611.345 503.903 613.444 504.015C615.589 504.158 617.631 503.663 619.576 502.525C621.518 501.386 623.24 499.636 624.744 497.271C626.154 495.049 626.921 492.621 627.035 489.984C627.169 487.427 626.337 484.899 624.538 482.399C624.321 481.99 624.178 481.524 624.104 481.003C624.046 480.56 624.155 480.122 624.43 479.688C624.767 479.156 625.282 478.772 625.977 478.535C626.669 478.298 627.258 478.332 627.739 478.638C628.079 478.853 628.354 479.164 628.571 479.573C628.785 479.979 629.017 480.466 629.269 481.032C631.142 484.055 631.983 487.264 631.788 490.664C631.562 494.114 630.53 497.285 628.688 500.182C626.572 503.514 624.164 505.914 621.467 507.387C618.787 508.937 615.978 509.626 613.038 509.452C610.115 509.357 607.232 508.405 604.384 506.595C602.645 505.491 601.058 504.041 599.622 502.247C598.235 500.486 596.956 498.283 595.79 495.644C594.62 493.004 593.524 489.766 592.506 485.931L585.619 461.733L586.949 461.561L571.854 485.313ZM549.841 509.077C552.295 505.216 555.509 502.716 559.482 501.584C563.457 500.448 567.813 500.471 572.552 501.652C577.34 502.865 582.17 505.022 587.047 508.119C591.971 511.248 595.973 514.708 599.056 518.495C602.187 522.316 604.058 526.248 604.67 530.298C605.331 534.377 604.432 538.349 601.979 542.21C599.465 546.168 596.236 548.691 592.292 549.778C588.365 550.942 584.009 550.919 579.222 549.706C574.483 548.525 569.652 546.371 564.727 543.24C559.851 540.142 555.85 536.685 552.718 532.864C549.635 529.077 547.764 525.142 547.104 521.063C546.412 517.031 547.324 513.035 549.841 509.077ZM554.331 511.931C552.521 514.78 551.911 517.711 552.501 520.732C553.058 523.797 554.649 526.841 557.271 529.861C559.908 532.961 563.377 535.875 567.673 538.607C572.017 541.366 576.13 543.268 580.008 544.309C583.903 545.43 587.358 545.594 590.373 544.798C593.356 544.049 595.752 542.253 597.563 539.404C599.342 536.605 599.951 533.67 599.393 530.604C598.804 527.587 597.188 524.527 594.551 521.427C591.929 518.406 588.445 515.515 584.101 512.755C579.805 510.024 575.71 508.099 571.811 506.978C567.933 505.937 564.501 505.788 561.518 506.537C558.507 507.332 556.11 509.131 554.331 511.931Z" fill="white"/>
<path d="M285.852 588.828C289.753 591.222 292.304 594.394 293.502 598.349C294.698 602.305 294.746 606.66 293.639 611.419C292.504 616.224 290.428 621.089 287.407 626.014C284.357 630.988 280.963 635.046 277.224 638.189C273.456 641.381 269.553 643.314 265.514 643.992C261.446 644.718 257.461 643.883 253.56 641.492C249.561 639.041 246.987 635.852 245.838 631.926C244.61 628.019 244.564 623.663 245.699 618.858C246.805 614.102 248.882 609.234 251.932 604.261C254.952 599.336 258.346 595.278 262.115 592.089C265.853 588.946 269.757 587.009 273.825 586.286C277.845 585.528 281.854 586.377 285.852 588.828ZM283.071 593.364C280.195 591.6 277.252 591.036 274.244 591.674C271.187 592.283 268.169 593.922 265.191 596.59C262.134 599.279 259.275 602.794 256.613 607.132C253.922 611.52 252.087 615.664 251.108 619.559C250.05 623.471 249.943 626.929 250.787 629.929C251.583 632.898 253.419 635.266 256.296 637.031C259.124 638.764 262.066 639.327 265.123 638.721C268.131 638.08 271.164 636.419 274.221 633.73C277.2 631.062 280.035 627.533 282.726 623.143C285.387 618.804 287.247 614.677 288.306 610.764C289.284 606.869 289.375 603.434 288.58 600.466C287.736 597.466 285.9 595.097 283.071 593.364ZM252.717 579.882C252.424 579.705 252.186 579.49 252.002 579.244C251.769 578.967 251.563 578.538 251.382 577.957C251.064 576.287 250.378 574.726 249.323 573.273C248.189 571.84 246.719 570.57 244.915 569.463C242.526 567.999 240.027 567.204 237.419 567.081C234.81 566.958 232.338 567.487 230.002 568.671C227.586 569.875 225.616 571.72 224.091 574.208C222.357 577.037 221.601 579.691 221.822 582.176C221.965 584.678 222.757 586.944 224.199 588.968C225.563 591.01 227.269 592.661 229.317 593.916C229.853 594.245 230.395 594.511 230.943 594.711C231.46 594.963 231.968 595.175 232.467 595.346C232.965 595.518 233.361 595.692 233.654 595.872C234.239 596.23 234.607 596.725 234.758 597.354C234.83 598.003 234.672 598.644 234.283 599.276C234.074 599.619 233.846 599.882 233.599 600.065C233.303 600.22 232.943 600.368 232.52 600.511L207.299 607.993L207.213 606.329L229.375 619.919C229.96 620.28 230.353 620.789 230.552 621.447C230.673 622.124 230.554 622.756 230.196 623.343C229.837 623.926 229.343 624.295 228.713 624.447C228.036 624.567 227.404 624.447 226.819 624.089L202.242 609.02C201.365 608.479 200.944 607.853 200.98 607.138C200.938 606.44 201.066 605.848 201.365 605.362C201.545 605.067 201.797 604.821 202.123 604.618C202.37 604.435 202.69 604.295 203.083 604.201L228.113 596.702L229.139 598.638C228.903 598.695 228.326 598.544 227.407 598.181C226.458 597.869 225.716 597.546 225.179 597.217C222.546 595.604 220.424 593.43 218.812 590.696C217.2 587.965 216.395 584.953 216.397 581.667C216.369 578.429 217.417 575.08 219.54 571.617C221.633 568.205 224.276 565.7 227.47 564.101C230.635 562.551 234.015 561.907 237.613 562.167C241.162 562.399 244.595 563.532 247.911 565.562C249.959 566.821 251.748 568.388 253.281 570.264C254.763 572.114 255.818 574.171 256.444 576.433C256.654 576.965 256.743 577.42 256.71 577.803C256.677 578.186 256.571 578.524 256.391 578.815C256.032 579.402 255.508 579.816 254.82 580.065C254.052 580.334 253.351 580.271 252.717 579.882ZM204.351 538.853C208.252 541.247 210.802 544.418 211.999 548.374C213.197 552.329 213.244 556.685 212.138 561.444C211.003 566.249 208.925 571.113 205.906 576.038C202.856 581.012 199.462 585.07 195.723 588.213C191.955 591.405 188.051 593.339 184.012 594.016C179.944 594.743 175.96 593.911 172.059 591.517C168.06 589.066 165.486 585.877 164.337 581.953C163.109 578.046 163.063 573.687 164.198 568.883C165.303 564.127 167.381 559.262 170.431 554.285C173.451 549.36 176.845 545.305 180.613 542.113C184.352 538.97 188.255 537.037 192.324 536.31C196.343 535.555 200.353 536.402 204.351 538.853ZM201.57 543.389C198.693 541.624 195.751 541.061 192.743 541.698C189.686 542.308 186.668 543.946 183.69 546.615C180.632 549.303 177.773 552.818 175.112 557.157C172.421 561.547 170.586 565.688 169.606 569.583C168.548 573.496 168.442 576.954 169.286 579.954C170.081 582.925 171.917 585.291 174.794 587.055C177.623 588.788 180.565 589.352 183.622 588.745C186.63 588.108 189.663 586.443 192.72 583.755C195.698 581.086 198.533 577.557 201.224 573.17C203.885 568.828 205.745 564.701 206.803 560.789C207.782 556.894 207.874 553.462 207.079 550.49C206.235 547.49 204.399 545.122 201.57 543.389Z" fill="white"/>
<path d="M121.186 306.383C119.485 310.633 116.786 313.679 113.089 315.527C109.392 317.374 105.106 318.152 100.231 317.863C95.3022 317.554 90.1565 316.328 84.7931 314.18C79.3766 312.012 74.8049 309.349 71.0777 306.192C67.2974 303.014 64.7334 299.494 63.3855 295.627C61.9846 291.74 62.1348 287.67 63.8356 283.423C65.5791 279.068 68.2886 275.994 71.9643 274.2C75.6082 272.332 79.8942 271.553 84.8226 271.862C89.698 272.151 94.8437 273.379 100.26 275.548C105.624 277.695 110.195 280.357 113.976 283.534C117.703 286.689 120.267 290.213 121.668 294.1C123.09 297.935 122.929 302.03 121.186 306.383ZM116.247 304.407C117.502 301.272 117.561 298.278 116.426 295.421C115.311 292.509 113.188 289.812 110.055 287.324C106.891 284.764 102.945 282.537 98.2191 280.645C93.4401 278.732 89.0482 277.621 85.044 277.311C81.0079 276.928 77.5822 277.404 74.7668 278.742C71.9729 280.026 69.9489 282.235 68.6945 285.368C67.4612 288.448 67.402 291.443 68.5163 294.354C69.652 297.211 71.8019 299.92 74.9665 302.482C78.099 304.968 82.055 307.167 86.834 309.08C91.5602 310.974 95.9414 312.112 99.9774 312.495C103.982 312.804 107.381 312.318 110.175 311.034C112.99 309.695 115.014 307.487 116.247 304.407ZM142.226 251.524C141.949 252.215 141.487 252.677 140.839 252.91C140.191 253.144 139.549 253.133 138.911 252.878L92.1551 234.158L93.207 233.378L112.539 265.424L111.567 265.312L123.685 235.044C123.941 234.407 124.366 233.961 124.961 233.706C125.577 233.398 126.203 233.372 126.841 233.627C127.478 233.882 127.913 234.334 128.147 234.982C128.402 235.577 128.401 236.193 128.146 236.83L114.72 270.364C114.465 271.001 114.003 271.463 113.333 271.75C112.611 272.015 111.931 272.02 111.294 271.765C110.71 271.531 110.253 271.133 109.924 270.57L86.6593 231.495C86.3939 231.081 86.2823 230.667 86.3249 230.252C86.3358 229.764 86.3944 229.387 86.5005 229.121C86.7771 228.431 87.2393 227.969 87.8871 227.736C88.5566 227.449 89.2098 227.433 89.847 227.688L140.825 248.099C141.462 248.354 141.924 248.816 142.21 249.485C142.497 250.154 142.502 250.834 142.226 251.524ZM157.873 214.752C156.172 219 153.473 222.048 149.776 223.895C146.079 225.742 141.793 226.521 136.918 226.233C131.989 225.923 126.843 224.695 121.48 222.547C116.064 220.379 111.492 217.716 107.765 214.56C103.984 211.383 101.42 207.861 100.073 203.995C98.6718 200.107 98.8217 196.038 100.523 191.791C102.266 187.436 104.976 184.362 108.651 182.568C112.295 180.7 116.581 179.92 121.51 180.23C126.385 180.518 131.531 181.747 136.947 183.916C142.311 186.063 146.882 188.725 150.663 191.902C154.39 195.058 156.954 198.58 158.355 202.468C159.777 206.303 159.616 210.397 157.873 214.752ZM152.934 212.775C154.189 209.642 154.248 206.646 153.113 203.789C151.998 200.878 149.875 198.179 146.742 195.693C143.578 193.132 139.632 190.905 134.906 189.013C130.127 187.1 125.735 185.988 121.731 185.679C117.695 185.295 114.269 185.772 111.454 187.11C108.66 188.394 106.636 190.603 105.381 193.736C104.148 196.816 104.089 199.811 105.203 202.722C106.339 205.579 108.489 208.288 111.653 210.85C114.786 213.336 118.742 215.536 123.521 217.449C128.247 219.341 132.628 220.479 136.665 220.863C140.669 221.172 144.068 220.685 146.862 219.401C149.677 218.063 151.701 215.855 152.934 212.775Z" fill="white"/>
</svg>
